<svg xmlns="http://www.w3.org/2000/svg" viewBox="0 0 48 48">
  <!-- 冷备清单 cold-manifest：冷色圆角底 + 雪花（冷备份） -->
  <rect width="48" height="48" rx="11" fill="#16283c"/>
  <g stroke="#7cc7f7" stroke-width="3" stroke-linecap="round">
    <path d="M24 9v30"/>
    <path d="M11.5 16.5l25 15"/>
    <path d="M36.5 16.5l-25 15"/>
  </g>
  <g stroke="#a8dcff" stroke-width="2.2" stroke-linecap="round" fill="none">
    <path d="M24 13.5l-3.8-3.8M24 13.5l3.8-3.8M24 34.5l-3.8 3.8M24 34.5l3.8 3.8"/>
    <path d="M13.6 18.8l-5.2-1.4M13.6 18.8l1.4-5.2M34.4 29.2l5.2 1.4M34.4 29.2l-1.4 5.2"/>
    <path d="M34.4 18.8l-1.4-5.2M34.4 18.8l5.2-1.4M13.6 29.2l-5.2 1.4M13.6 29.2l1.4 5.2"/>
  </g>
</svg>
